<?xml version="1.0" encoding="UTF-8"?>
<svg width="1288px" height="1559px" viewBox="0 0 1288 1559" version="1.1" xmlns="http://www.w3.org/2000/svg" xmlns:xlink="http://www.w3.org/1999/xlink">
    <!-- Generator: Sketch 61.2 (89653) - https://sketch.com -->
    <title>Group 2</title>
    <desc>Created with Sketch.</desc>
    <defs>
        <linearGradient x1="50%" y1="55.246296%" x2="39.7862738%" y2="92.3918597%" id="linearGradient-1">
            <stop stop-color="#FFFFFF" offset="0%"></stop>
            <stop stop-color="#FFFFFF" stop-opacity="0" offset="100%"></stop>
        </linearGradient>
        <polygon id="path-2" points="3.49586997e-14 38.6626559 92.0689029 65.4535911 209.805701 27.6596221 118.206482 -4.54463096e-13"></polygon>
        <polygon id="path-4" points="3.49586997e-14 38.6626559 92.0689029 65.4535911 209.805701 27.6596221 118.206482 -4.54463096e-13"></polygon>
        <polygon id="path-6" points="1.35919435e-12 -2.51702658e-14 91.5944971 330.203512 18.3703302 362.278836 14.6927533 288.25513"></polygon>
        <polygon id="path-8" points="21.3800416 7.55107974e-14 112.974539 330.203512 59.2878017 360.018531 -2.39117525e-13 352.058042"></polygon>
        <polygon id="path-10" points="23.7836859 43.2143188 210.422784 489.652501 0.721288916 502.743276"></polygon>
        <polygon id="path-12" points="9.95631572 184.213318 38.109215 3.02043171e-14 124.062709 301.36403 4.45513678e-13 289.288665"></polygon>
        <polygon id="path-14" points="-6.79597136e-13 3.02043171e-14 127.195306 283.934112 85.9534942 301.36403"></polygon>
        <polygon id="path-16" points="3.9013912e-13 434.494304 190.968083 0.983041526 167.905686 460.511998"></polygon>
        <polygon id="path-18" points="5.97378907 59.889283 37.0351276 0.0688033203 74.437621 101.793189 0 97.4739243"></polygon>
        <polygon id="path-20" points="-1.11867839e-12 0.0688033203 62.1475791 95.5586421 37.4024935 101.793189"></polygon>
        <polygon id="path-22" points="23.6624704 0.499919592 210.301568 446.938102 0.600073352 460.028877"></polygon>
        <polygon id="path-24" points="158.300024 1.26858132e-12 56.270722 373.215281 -7.55107929e-14 366.424404"></polygon>
        <polygon id="path-26" points="102.029301 1.26858132e-12 102.029301 368.69342 -2.49185616e-13 373.215281"></polygon>
        <polygon id="path-28" points="52.5310327 9.66538149e-13 0 270.473624 167.422599 279.393387"></polygon>
        <polygon id="path-30" points="0 0.0947983237 114.891566 279.488186 142.253896 257.439394"></polygon>
        <polygon id="path-32" points="2.79669581e-14 30.9301228 73.6551179 52.3628698 167.844551 22.1276964 94.5651802 -3.63570455e-13"></polygon>
    </defs>
    <g id="Page-1" stroke="none" stroke-width="1" fill="none" fill-rule="evenodd">
        <g id="Group-2">
            <circle id="Oval" fill="url(#linearGradient-1)" opacity="0.049999997" cx="694.949984" cy="649.849985" r="592.449986"></circle>
            <g id="Group-26" transform="translate(0.000000, 166.999996)">
                <polygon id="Path-77" fill="#4E4E4E" transform="translate(963.032264, 1004.369917) scale(-1, 1) translate(-963.032264, -1004.369917) " points="910.142268 832.93859 1015.92226 1202.3999 953.898964 806.339933"></polygon>
                <polygon id="Path-78" fill="#363636" transform="translate(923.672267, 1000.481164) scale(-1, 1) translate(-923.672267, -1000.481164) " points="935.205359 1198.51115 974.102263 811.955644 873.242271 802.45118"></polygon>
                <polygon id="Path-142" fill="#292929" points="959.342264 712.817163 1067.84892 685.282783 1001.04455 985.919918"></polygon>
                <polyline id="Path-143" fill="#151515" points="1001.04455 985.919918 917.522268 795.50558 958.732069 712.817163"></polyline>
                <polygon id="Path-141" fill="#373737" points="1019.97381 902.965234 1070.13234 688.045927 965.26284 714.040133"></polygon>
                <polygon id="Path" fill="#838383" points="1019.97381 902.965234 1206.75722 642.130783 1067.84892 688.045927"></polygon>
                <polygon id="Path-52" fill="#454545" points="944.582265 707.503585 956.210129 705.479941 959.342264 914.579924"></polygon>
                <polygon id="Path-49" fill="#838383" points="1067.84892 647.654683 1045.57198 755.114337 1016.20984 676.678862"></polygon>
                <polygon id="Path-50" fill="#838383" points="956.135136 726.191186 959.342264 918.020721 1016.20984 717.070105"></polygon>
                <polygon id="Path-83" fill="#260101" points="824.042275 641.519947 866.730332 641.519947 897.842269 668.467012 875.202839 720.23994 836.820154 691.243858"></polygon>
                <polygon id="Path-51" fill="#B6B6B6" points="959.342264 917.138354 939.662266 968.699919 939.662266 624.299948"></polygon>
                <polygon id="Path-82" fill="#151515" points="770.799982 1067.93752 800.591413 1108.91996 847.059976 1063.73796 816.002414 931.799978"></polygon>
                <polygon id="Path-73" fill="#323232" points="848.642273 836.891177 725.025967 1237.87114 678.902287 1119.4129 678.902287 944.247019"></polygon>
                <polygon id="Path-58" fill="#959595" points="740.402282 757.998215 784.087068 917.039924 612.482293 742.379938"></polygon>
                <polygon id="Path-81" fill="#232323" points="724.349823 1234.05382 629.702292 1057.4119 654.30229 827.051178"></polygon>
                <polygon id="Path-59" fill="#525252" points="873.773759 739.820783 897.842269 736.031186 819.122276 946.76596 768.588979 978.539919 785.011342 914.362667"></polygon>
                <polygon id="Path-65" fill="#3F3F3F" points="445.202307 754.481184 389.339411 1060.94991 550.715638 750.791184"></polygon>
                <polygon id="Path-60" fill="#373737" points="612.482293 742.379938 739.611706 1089.23991 784.682279 915.65243"></polygon>
                <polygon id="Path-61" fill="#525252" points="594.72201 693.179942 564.248881 966.92116 708.422285 985.919918"></polygon>
                <polygon id="Path-87" fill="#260101" points="499.322302 651.359946 578.042296 665.442934 553.04432 707.939941"></polygon>
                <polygon id="Path-85" fill="#373737" points="455.042306 753.251184 479.642304 981.423534 450.260441 990.839918 351.722315 710.108279 355.831979 646.439946"></polygon>
                <polygon id="Path-62" fill="#454545" points="598.528236 674.376966 450.122306 1000.67992 564.248881 966.92116"></polygon>
                <polygon id="Path-86" fill="#838383" points="455.042306 753.251184 577.392907 739.820783 475.127711 953.939921"></polygon>
                <polygon id="Path-66" fill="#505050" points="420.602309 930.371169 464.598201 1203.43115 482.102304 976.592439"></polygon>
                <polygon id="Path-67" fill="#5D5D5D" points="464.882305 1203.43115 533.7623 1016.43838 482.446609 977.111166"></polygon>
                <polygon id="Path-64" fill="#333333" points="398.462311 806.339933 285.297515 1068.03026 415.682309 870.970823"></polygon>
                <polygon id="Path-65" fill="#838383" points="349.528975 760.631184 389.339411 1060.94991 455.042306 756.941184"></polygon>
                <polygon id="Path-69" fill="#3F3F3F" points="285.297515 1068.03026 405.84231 795.049542 188.663246 768.011183"></polygon>
                <polygon id="Path-70" fill="#783E2A" points="245.942323 658.995489 311.234613 548.039954 341.741567 557.537206 405.84231 695.639942"></polygon>
                <polygon id="Path-51" fill="#525252" points="959.342264 917.138354 939.662266 968.699919 939.662266 624.299948"></polygon>
                <polygon id="Path-72" fill="#232323" points="819.122276 944.099922 855.062298 1172.8799 917.522268 953.400662"></polygon>
                <polygon id="Path-55" fill="#454545" points="819.122276 945.254245 939.662266 967.188204 939.662266 727.619939 897.842269 734.51947"></polygon>
                <polygon id="Path-71" fill="#454545" points="1.07562291e-12 671.039944 270.760935 925.649923 223.374708 681.568337"></polygon>
                <polygon id="Path-80" fill="#191919" points="484.562304 974.209715 590.342295 1353.49113 538.682299 953.939921"></polygon>
                <polyline id="Path-81" fill="#383838" points="589.051914 1391.81988 629.702292 1215.68347 585.422295 978.539919"></polyline>
                <polygon id="Path-77" fill="#5F5F5F" points="538.682299 953.939921 646.92229 1336.27114 585.422295 940.211169"></polygon>
                <polygon id="Path-78" fill="#696969" points="647.385383 1336.27114 682.913 981.608353 585.422295 940.211169"></polygon>
                <polygon id="Path-78" fill="#7A7A7A" points="646.92229 1336.27114 708.422285 985.919918 682.913 981.608353"></polygon>
                <polygon id="Path-79" fill="#4B4B4B" points="484.562304 974.209715 594.655703 1152.04502 538.682299 953.939921"></polygon>
                <polygon id="Path-43" fill="#747474" points="221.608986 642.391326 3.41060513e-13 630.648701 3.41060513e-13 671.039944 223.826349 683.669361"></polygon>
                <polygon id="Path-43" fill="#8F8F8F" points="455.042306 714.059311 323.636516 737.459939 323.636516 778.002489 455.042306 755.862491"></polygon>
                <polygon id="Path-43" fill="#A5A5A5" points="577.392907 699.42954 455.042306 714.12057 455.042306 755.862491 577.392907 739.820783"></polygon>
                <polygon id="Path-43" fill="#767676" points="738.311042 719.057386 697.33547 714.187836 698.286429 755.862491 738.311042 759.599937"></polygon>
                <polygon id="Path-43" fill="#949494" points="698.284681 715.31994 577.392907 697.952798 577.392907 739.820783 698.284681 755.862491"></polygon>
                <polygon id="Path-43" fill="#808080" points="803.284148 737.459939 737.942283 717.77994 738.311042 759.599937 803.284148 778.002489"></polygon>
                <polygon id="Path-43" fill="#888888" points="803.284148 737.459939 873.404999 698.974046 873.773759 739.820783 803.279944 777.851182"></polygon>
                <polygon id="Path-43" fill="#9A9A9A" points="1016.20984 676.834048 873.404999 698.974046 873.773759 739.820783 1016.20984 716.403339"></polygon>
                <polygon id="Path-43" fill="#BDBDBD" points="1016.20984 676.834048 1069.76358 646.377237 1070.13234 687.89074 1016.20984 716.54994"></polygon>
                <polygon id="Path-43" fill="#C2C2C2" points="1206.75722 601.73954 1069.76358 646.377237 1070.13234 688.045927 1206.75722 642.130783"></polygon>
                <polygon id="Path-43" fill="#767676" points="220.220731 641.159895 223.826349 683.669361 301.10923 713.447478 301.10923 672.425919"></polygon>
                <polygon id="Path-43" fill="#636363" points="301.10923 672.425919 301.10923 712.817163 323.636516 778.002489 323.636516 737.459939"></polygon>
                <polygon id="Path-43" fill="#949494" points="221.608986 620.251328 -1.13686838e-13 608.508703 -1.13686838e-13 630.648701 223.826349 643.278118"></polygon>
                <polygon id="Path-43" fill="#9C9C9C" points="455.042306 691.919313 323.636516 715.31994 323.636516 737.459939 455.042306 715.31994"></polygon>
                <polygon id="Path-43" fill="#ADADAD" points="577.392907 677.289542 455.042306 691.980572 455.042306 715.31994 577.392907 699.42954"></polygon>
                <polygon id="Path-43" fill="#9C9C9C" points="698.284681 693.179942 577.392907 675.8128 577.392907 699.152168 698.284681 715.31994"></polygon>
                <polygon id="Path-43" fill="#828282" points="738.311042 696.917388 697.33547 692.047838 698.286429 715.31994 738.311042 719.057386"></polygon>
                <polygon id="Path-92" fill="#373737" points="740.402282 758.171184 784.082864 914.532478 803.279944 776.573736"></polygon>
                <polygon id="Path-43" fill="#919191" points="803.284148 715.31994 737.942283 695.639942 738.311042 719.057386 803.284148 737.459939"></polygon>
                <polygon id="Path-43" fill="#9E9E9E" points="803.284148 715.31994 873.404999 676.834048 873.773759 700.251492 803.284148 737.459939"></polygon>
                <polygon id="Path-43" fill="#B3B3B3" points="1016.20984 654.69405 873.404999 676.834048 873.773759 700.251492 1016.20984 676.834048"></polygon>
                <polygon id="Path-43" fill="#C8C8C8" points="1016.20984 654.69405 1069.76358 624.237239 1070.13234 647.654683 1016.20984 676.834048"></polygon>
                <polygon id="Path-43" fill="#D3D3D3" points="1206.75722 579.599542 1069.76358 624.237239 1070.13234 647.654683 1206.75722 601.73954"></polygon>
                <polygon id="Path-43" fill="#838383" points="220.220731 619.019897 223.826349 643.278118 301.10923 672.425919 301.10923 650.285921"></polygon>
                <polygon id="Path-43" fill="#727272" points="301.10923 650.285921 301.10923 672.425919 323.636516 737.459939 323.636516 715.31994"></polygon>
                <polygon id="Path-43" fill="#FFFFFF" points="516.217606 395.872231 301.10923 486.470897 202.719358 519.427832 143.441531 533.961812 221.608986 620.251328 301.10923 650.285921 323.636516 715.31994 448.123947 693.505972 577.392907 677.289542 698.060122 693.505972 737.594575 697.073297 803.284148 715.31994 873.773759 677.289542 1016.20984 654.538863 1068.37707 625.356139 1206.75722 579.599542 1070.13234 505.57872 986.172486 463.693277 879.392271 442.648086 763.77228 418.289846"></polygon>
                <g id="Path-146-+-Path-146-+-Path-146-+-Path-146-+-Path-146-Mask" transform="translate(686.911671, 623.267602)">
                    <mask id="mask-3" fill="white">
                        <use xlink:href="#path-2"></use>
                    </mask>
                    <use id="Mask" fill="#717171" xlink:href="#path-2"></use>
                    <polygon id="Path-146" fill="#545454" mask="url(#mask-3)" points="9.21061552 36.2884496 99.9759446 64.9923412 114.990607 60.7078707 23.9835093 30.552344"></polygon>
                    <polygon id="Path-146" fill="#545454" mask="url(#mask-3)" points="31.3506137 28.9084503 122.115943 57.6123418 137.130605 53.3278713 46.1235075 23.1723446"></polygon>
                    <polygon id="Path-146" fill="#545454" mask="url(#mask-3)" points="53.4906119 21.5284509 144.255941 50.2323424 159.270603 45.9478719 68.2635057 15.7923453"></polygon>
                    <polygon id="Path-146" fill="#545454" mask="url(#mask-3)" points="75.63061 14.1484515 168.506761 42.852343 183.870601 38.5678725 90.7470595 8.41234586"></polygon>
                    <polygon id="Path-146" fill="#545454" mask="url(#mask-3)" points="97.7706082 6.76845209 190.646759 35.4723436 206.010599 31.1878732 112.887058 1.03234647"></polygon>
                </g>
                <g id="Path-146-+-Path-146-+-Path-146-+-Path-146-+-Path-146-Mask" transform="translate(582.962295, 589.859951)">
                    <mask id="mask-5" fill="white">
                        <use xlink:href="#path-4"></use>
                    </mask>
                    <use id="Mask" fill="#777777" xlink:href="#path-4"></use>
                    <polygon id="Path-146" fill="#545454" mask="url(#mask-5)" points="9.21061552 36.2884496 99.9759446 64.9923412 114.990607 60.7078707 23.9835093 30.552344"></polygon>
                    <polygon id="Path-146" fill="#545454" mask="url(#mask-5)" points="31.3506137 28.9084503 122.115943 57.6123418 137.130605 53.3278713 46.1235075 23.1723446"></polygon>
                    <polygon id="Path-146" fill="#545454" mask="url(#mask-5)" points="53.4906119 21.5284509 144.255941 50.2323424 159.270603 45.9478719 68.2635057 15.7923453"></polygon>
                    <polygon id="Path-146" fill="#545454" mask="url(#mask-5)" points="75.63061 14.1484515 168.506761 42.852343 183.870601 38.5678725 90.7470595 8.41234586"></polygon>
                    <polygon id="Path-146" fill="#545454" mask="url(#mask-5)" points="97.7706082 6.76845209 190.646759 35.4723436 206.010599 31.1878732 112.887058 1.03234647"></polygon>
                </g>
                <g id="Group-19" transform="translate(322.202317, 468.588447)">
                    <polygon id="Path-88" fill="#ECECEC" points="0 172.588647 18.4499985 225.693791 81.9132038 224.601412 203.238493 190.161415 210.368727 105.82177 314.25059 70.8796454 357.144404 70.8796454 412.650582 56.9966967 463.475409 39.9649926 472.319961 17.9515122 437.410273 0.333592936 423.437554 2.4599998 433.955093 21.6094144 423.437554 30.2504885 390.568221 48.816619 352.897061 56.3506887 312.436285 51.3083046 268.309531 36.9902726 160.602439 69.3878277 129.251958 140.990247 63.766591 145.004964"></polygon>
                    <g id="Group-17" transform="translate(440.339964, 22.871512)">
                        <polygon id="Path-145" fill="#8B8B8B" points="3.03703704e-13 2.2075539 14.1230024 20.1668483 15.2659924 19.7896804 3.03703704e-13 -3.4521716e-13"></polygon>
                        <polygon id="Path-145" fill="#B5B5B5" points="1.43767653e-12 0.325566855 15.2659924 19.7896804 23.1354456 17.0934808 9.14371764 3.77990941e-13"></polygon>
                    </g>
                    <g id="Group-18" transform="translate(159.899987, 62.231509)">
                        <g id="Group-17">
                            <polygon id="Path-145" fill="#545454" opacity="0.5" points="0.702452633 7.15631915 83.1751396 32.6118137 90.2572484 30.2491088 5.19897174 5.61517776"></polygon>
                            <polygon id="Path-145" fill="#AFAFAF" points="1.11867839e-12 4.13697004 92.0689029 30.9279053 110.548764 26.2047028 15.440322 0"></polygon>
                        </g>
                    </g>
                    <g id="Group-18" transform="translate(78.719993, 143.411502)">
                        <g id="Group-17">
                            <polygon id="Path-145" fill="#8B8B8B" points="0.727910096 3.03834324 18.2031577 23.9038583 18.2031577 21.2676073 0.727910096 0.402092252"></polygon>
                            <polygon id="Path-145" fill="#C3C3C3" points="29.5199976 23.9038583 18.2031577 23.9038583 18.2031577 21.2676073 29.5199976 21.2676073"></polygon>
                            <polygon id="Path-145" fill="#B5B5B5" points="0.727910096 0.402092252 18.2031577 21.2676073 29.5199976 21.2676073 12.6189101 0"></polygon>
                        </g>
                    </g>
                </g>
                <g id="Berge" transform="translate(337.402316, 0.000000)">
                    <g id="Group-8" transform="translate(208.332310, 0.545361)">
                        <polygon id="Path-29" fill="#BBDBDD" points="80.4751997 127.253608 106.393215 1.54239999 121.085968 170.240791 95.8571583 147.982988 83.6652286 173.116271"></polygon>
                        <g id="Path-21" transform="translate(106.393215, 1.542400)">
                            <mask id="mask-7" fill="white">
                                <use xlink:href="#path-6"></use>
                            </mask>
                            <use id="Mask" fill="#F4F4F4" xlink:href="#path-6"></use>
                            <polygon fill="#FFFFFF" mask="url(#mask-7)" points="-5.61263111 171.573871 14.6927533 233.838473 29.8630645 182.659439 77.9327997 261.594707 2.21511698e-12 -2.26532392e-13"></polygon>
                        </g>
                        <g id="Path-21" transform="translate(14.890889, -0.002961)">
                            <mask id="mask-9" fill="white">
                                <use xlink:href="#path-8"></use>
                            </mask>
                            <use id="Mask" fill="#909090" transform="translate(56.487269, 180.009266) scale(-1, 1) translate(-56.487269, -180.009266) " xlink:href="#path-8"></use>
                            <polygon fill="#D9D9D9" mask="url(#mask-9)" points="33.6527999 164.998349 75.2653396 214.888706 85.941391 184.204799 106.19508 235.383834 91.5023263 3.79493436"></polygon>
                        </g>
                        <mask id="mask-11" fill="white">
                            <use xlink:href="#path-10"></use>
                        </mask>
                        <use id="Mask" fill="#EBC18F" xlink:href="#path-10"></use>
                    </g>
                    <g id="Group-9" transform="translate(346.206200, 175.906912)">
                        <g id="Path-21">
                            <mask id="mask-13" fill="white">
                                <use xlink:href="#path-12"></use>
                            </mask>
                            <use id="Mask" fill="#D8D8D8" xlink:href="#path-12"></use>
                            <polygon fill="#F6F6F6" mask="url(#mask-13)" points="4.46647691 60.4028984 18.4055875 119.909647 32.365643 109.399716 46.1767987 125.159404 76.0040736 100.270604 35.0805747 -5.12076016"></polygon>
                        </g>
                        <g id="Path-21" transform="translate(38.109215, 0.000000)">
                            <mask id="mask-15" fill="white">
                                <use xlink:href="#path-14"></use>
                            </mask>
                            <use id="Mask" fill="#F1F1F1" xlink:href="#path-14"></use>
                            <polygon fill="#FFFFFF" mask="url(#mask-15)" points="22.1296685 100.234473 30.0488638 107.243539 44.7829398 125.159404 47.3123638 112.427102 71.0746709 107.243539 -5.62705342e-13 -1.01197402e-12"></polygon>
                        </g>
                    </g>
                    <g id="Group-5" transform="translate(0.000000, 42.460800)">
                        <g id="Path-21" transform="translate(41.147914, 0.315838)">
                            <mask id="mask-17" fill="white">
                                <use xlink:href="#path-16"></use>
                            </mask>
                            <use id="Mask" fill="#B0B0B0" xlink:href="#path-16"></use>
                            <polygon fill="#E8E8E8" mask="url(#mask-17)" points="131.390707 76.5158352 107.218334 204.657772 135.413224 185.142317 136.753771 204.657772 166.309737 196.150809 172.870084 210.264264 188.714645 157.977289 191.285515 -17.0035189"></polygon>
                        </g>
                        <g id="Group-9" transform="translate(49.739199, 397.663199) scale(-1, 1) translate(-49.739199, -397.663199) translate(0.239199, 346.663199)">
                            <g id="Path-21">
                                <mask id="mask-19" fill="white">
                                    <use xlink:href="#path-18"></use>
                                </mask>
                                <use id="Mask" fill="#E4E4E4" xlink:href="#path-18"></use>
                            </g>
                            <g id="Path-21" transform="translate(35.424000, 0.000000)">
                                <mask id="mask-21" fill="white">
                                    <use xlink:href="#path-20"></use>
                                </mask>
                                <use id="Mask" fill="#C8C8C8" xlink:href="#path-20"></use>
                            </g>
                        </g>
                        <g id="Path-21" transform="translate(208.453526, 0.798960)">
                            <mask id="mask-23" fill="white">
                                <use xlink:href="#path-22"></use>
                            </mask>
                            <use id="Mask" fill="#EEEEEE" xlink:href="#path-22"></use>
                            <polygon fill="#FFFFFF" mask="url(#mask-23)" points="7.46992179 132.647152 12.2491328 161.79724 39.1037276 225.296626 61.3219878 173.018936 95.7359428 189.593506 92.4751347 136.323063 24.6924568 -14.7594483"></polygon>
                        </g>
                        <g id="Group-6" transform="translate(49.645600, 92.172671)">
                            <g id="Path-21" transform="translate(0.000000, -0.000000)">
                                <mask id="mask-25" fill="white">
                                    <use xlink:href="#path-24"></use>
                                </mask>
                                <use id="Mask" fill="#D7D7D7" xlink:href="#path-24"></use>
                                <polygon fill="#F6F6F6" mask="url(#mask-25)" points="108.397433 94.5289257 105.04048 123.964495 118.540215 106.721555 123.259347 140.847059 132.794745 126.733604 158.291836 2.63181167e-12"></polygon>
                            </g>
                            <g id="Path-21" transform="translate(56.270722, -0.000000)">
                                <mask id="mask-27" fill="white">
                                    <use xlink:href="#path-26"></use>
                                </mask>
                                <use id="Mask" fill="#F6F6F6" xlink:href="#path-26"></use>
                                <polygon fill="#FFFFFF" mask="url(#mask-27)" points="77.6319895 86.0271662 77.6319895 123.964495 87.7747714 98.2197955 92.4939032 132.3453 102.029301 118.231845 105.262708 -15.3409976"></polygon>
                            </g>
                        </g>
                    </g>
                    <g id="Group-7" transform="translate(207.945623, 232.062386)">
                        <g id="Path-21" transform="translate(0.000000, 0.790880)">
                            <mask id="mask-29" fill="white">
                                <use xlink:href="#path-28"></use>
                            </mask>
                            <use id="Mask" fill="#D5D5D5" xlink:href="#path-28"></use>
                            <polygon fill="#F6F6F6" mask="url(#mask-29)" points="21.9169349 48.5201396 35.8560455 108.026888 49.816101 97.516957 77.6363209 139.696694 93.4545316 88.3878452 52.5310327 -17.0035189"></polygon>
                        </g>
                        <g id="Path-21" transform="translate(52.531033, 0.696082)">
                            <mask id="mask-31" fill="white">
                                <use xlink:href="#path-30"></use>
                            </mask>
                            <use id="Mask" fill="#F7F7F7" xlink:href="#path-30"></use>
                            <polygon fill="#FFFFFF" mask="url(#mask-31)" points="22.1819457 81.9046451 22.1819457 119.841974 47.364641 117.00553 47.364641 94.0972744 71.1269481 88.913711 -8.08518242 -27.7014675"></polygon>
                        </g>
                    </g>
                </g>
                <polygon id="Path-43" fill="#FFFFFF" points="1068.37707 625.356139 1206.75722 579.599542 1070.13234 505.57872"></polygon>
                <polygon id="Path-43" fill="#FFFFFF" points="143.441531 533.961812 4.54747351e-13 608.508703 221.608986 620.251328"></polygon>
                <g id="Path-146-+-Path-146-+-Path-146-+-Path-146-+-Path-146-Mask" transform="translate(147.825447, 572.222946) rotate(-9.000000) translate(-147.825447, -572.222946) translate(63.825447, 545.722946)">
                    <mask id="mask-33" fill="white">
                        <use xlink:href="#path-32"></use>
                    </mask>
                    <use id="Mask" fill="#717171" xlink:href="#path-32"></use>
                    <polygon id="Path-146" fill="#545454" mask="url(#mask-33)" points="7.36849198 29.030758 79.9807509 51.9938698 91.9924799 48.5662937 19.1868063 24.4418738"></polygon>
                    <polygon id="Path-146" fill="#545454" mask="url(#mask-33)" points="25.0804895 23.1267588 97.6927484 46.0898707 109.704477 42.6622945 36.8988038 18.5378746"></polygon>
                    <polygon id="Path-146" fill="#545454" mask="url(#mask-33)" points="42.7924869 17.2227597 115.404746 40.1858715 127.416475 36.7582954 54.6108013 12.6338754"></polygon>
                    <polygon id="Path-146" fill="#545454" mask="url(#mask-33)" points="60.5044844 11.3187605 134.805401 34.2818724 147.096472 30.8542962 72.5976433 6.72987629"></polygon>
                    <polygon id="Path-146" fill="#545454" mask="url(#mask-33)" points="78.2164819 5.41476135 152.517398 28.3778732 164.80847 24.950297 90.3096408 0.82587713"></polygon>
                </g>
                <polygon id="Path-89" fill="#434343" points="301.10923 712.817163 270.760935 925.649923 323.636516 777.851182"></polygon>
                <polygon id="Path-90" fill="#454545" points="323.636516 777.851182 270.760935 925.649923 455.042306 755.189875"></polygon>
                <polygon id="Path-91" fill="#373737" points="223.826349 683.669361 270.760935 925.649923 301.10923 712.817163"></polygon>
                <polygon id="Path-140" fill="#959595" points="784.682279 915.65243 873.773759 739.820783 803.284148 777.851182"></polygon>
                <polygon id="Path-144" fill="#222222" points="556.197786 1089.23991 588.868457 1346.02525 587.371797 1140.60145"></polygon>
                <polygon id="Path-147" fill="#E5E5E5" points="850.266258 441.275961 809.892472 464.975923 795.11866 504.659167 880.30336 548.442947 1011.95106 558.582101 1038.36375 500.172188 955.837042 468.223677 882.625825 449.639962"></polygon>
                <g id="Group" transform="translate(963.360720, 473.462177) rotate(7.000000) translate(-963.360720, -473.462177) translate(920.360720, 435.462177)">
                    <polygon id="Path-33" fill="#7C7C7C" points="33.8026114 62.5476529 74.4962709 58.3704575 69.7476735 3.63797881e-12 28.5199976 6.22836541"></polygon>
                    <polygon id="Path-33" fill="#000000" opacity="0.100000001" points="33.8026114 62.5476529 74.4962709 58.3704575 41.8696789 69.3302751 0.64200296 75.5586405"></polygon>
                    <polygon id="Path-34" fill="#D9D9D9" points="69.7476735 3.63797881e-12 79.5901721 4.35631353 85.3251608 53.9192381 74.4962709 58.3704575"></polygon>
                </g>
                <g id="Group-3" transform="translate(873.242271, 433.419964)">
                    <polygon id="Path-38" fill="#7C7C7C" points="24.599998 44.6437128 24.599998 2.51352259 48.3911669 0.118151662 48.3911669 44.6437128"></polygon>
                    <polygon id="Path-38" fill="#000000" opacity="0.100000001" points="24.599998 44.6437128 0.53148735 53.1199955 24.3226563 50.7246246 48.3911669 44.6437128"></polygon>
                    <polygon id="Path-39" fill="#D9D9D9" points="48.3911669 44.6437128 57.3463149 39.3256786 57.3463149 1.44846317 48.3911669 0.363719059"></polygon>
                </g>
                <g id="Group" transform="translate(926.375103, 496.620058) rotate(7.000000) translate(-926.375103, -496.620058) translate(889.875103, 465.120058)">
                    <polygon id="Path-33" fill="#8D8D8D" points="31.2860886 50.0381193 63.8410142 46.6963632 60.0421365 1.78988542e-11 27.0599978 4.98269203"></polygon>
                    <polygon id="Path-33" fill="#000000" opacity="0.100000001" points="31.2860886 50.0381193 63.8410142 46.6963632 33.7657207 57.3984079 0.783581928 62.3810999"></polygon>
                    <polygon id="Path-34" fill="#B1B1B1" points="60.0421365 2.5729603e-11 67.916135 3.48505061 72.5041256 43.1353879 63.8410142 46.6963632"></polygon>
                </g>
                <g id="Group" transform="translate(977.633638, 514.960948) rotate(7.000000) translate(-977.633638, -514.960948) translate(947.633638, 489.960948)">
                    <polygon id="Path-33" fill="#8D8D8D" points="26.9808704 40.0304931 53.0248094 37.3570883 49.9857074 2.18278728e-11 23.599998 3.98615339"></polygon>
                    <polygon id="Path-33" fill="#000000" opacity="0.100000001" points="26.9808704 40.0304931 53.0248094 37.3570883 27.3238327 45.3305689 0.938123235 49.3167223"></polygon>
                    <polygon id="Path-34" fill="#B1B1B1" points="49.9857074 2.72848411e-11 56.2849058 2.78804033 59.9552981 34.5083083 53.0248094 37.3570883"></polygon>
                </g>
                <g id="Group-20" transform="translate(802.902277, 412.739966)">
                    <polygon id="Rectangle" fill="#7C7C7C" points="40.8199965 2.95199958 76.2439915 2.95199958 76.2439915 73.7999895 40.8199965 69.4599159"></polygon>
                    <polygon id="Rectangle" fill="#000000" opacity="0.100000001" points="0.381870481 76.2599937 35.8058654 76.2599937 76.2439915 73.7999895 40.8199965 69.4599159"></polygon>
                    <polygon id="Rectangle" fill="#EDEDED" points="40.8199965 2.95199958 76.2439915 2.95199958 89.6995169 0 54.275522 0"></polygon>
                    <polygon id="Rectangle" fill="#D9D9D9" points="89.6995169 0 76.2439915 2.95199958 76.2439915 73.7999895 89.6995169 70.8479899"></polygon>
                </g>
                <g id="Group-3" transform="translate(828.962275, 459.479962)">
                    <polygon id="Path-38" fill="#8D8D8D" points="36.8999969 53.1359924 36.8999969 2.85859197 69.3719923 0 69.3719923 53.1359924"></polygon>
                    <polygon id="Path-38" fill="#000000" opacity="0.100000001" points="36.8999969 53.1359924 -1.61683986e-13 58.872067 32.4719954 56.0134751 69.3719923 53.1359924"></polygon>
                    <polygon id="Path-39" fill="#B1B1B1" points="69.3719923 53.1359924 81.1799906 46.7543514 81.1799906 1.30169293 69.3719923 0"></polygon>
                </g>
                <g id="Group-3" transform="translate(705.962285, 521.979957)">
                    <g id="Group-23">
                        <polygon id="Path-38" fill="#9D9D9D" points="0 45.8446234 0 24.3816771 32.4719954 24.3816771 32.4719954 47.9382483"></polygon>
                        <polygon id="Path-39" fill="#AFAFAF" points="32.4719954 47.9382483 66.1741879 30.2745933 66.1741879 13.7599988 32.4719954 24.3816771"></polygon>
                        <polyline id="Path-150" fill="#AFAFAF" points="32.4719954 24.3816771 17.159773 10.5945949 0 24.3816771"></polyline>
                        <polyline id="Path-151" fill="#D8D8D8" points="17.159773 10.5945949 50.8844724 0.0200792017 66.1741879 13.7599988 32.4719954 24.67112"></polyline>
                    </g>
                    <g id="Group-23" transform="translate(53.380241, 5.625404)">
                        <polygon id="Path-38" fill="#9D9D9D" points="0 45.8446234 0 24.3816771 32.4719954 24.3816771 32.4719954 47.9382483"></polygon>
                        <polygon id="Path-39" fill="#AFAFAF" points="32.4719954 47.9382483 66.1741879 30.2745933 66.1741879 13.7599988 32.4719954 24.3816771"></polygon>
                        <polyline id="Path-150" fill="#AFAFAF" points="32.4719954 24.3816771 17.159773 10.5945949 0 24.3816771"></polyline>
                        <polyline id="Path-151" fill="#D8D8D8" points="17.159773 10.5945949 50.8844724 0.0200792017 66.1741879 13.7599988 32.4719954 24.67112"></polyline>
                    </g>
                </g>
                <polygon id="Path-147" fill="#E5E5E5" points="284.425124 502.775956 256.251706 518.183154 228.214806 562.211035 287.657937 590.674599 397.25115 579.035949 415.682309 541.064028 358.093963 520.294499 307.006104 508.213341"></polygon>
                <g id="Group-3" transform="translate(300.062319, 485.079960)">
                    <polygon id="Path-38" fill="#7C7C7C" points="24.599998 44.6437128 24.599998 2.51352259 48.3911669 0.118151662 48.3911669 44.6437128"></polygon>
                    <polygon id="Path-38" fill="#000000" opacity="0.100000001" points="24.599998 44.6437128 0.53148735 53.1199955 24.3226563 50.7246246 48.3911669 44.6437128"></polygon>
                    <polygon id="Path-39" fill="#D9D9D9" points="48.3911669 44.6437128 57.3463149 39.3256786 57.3463149 1.44846317 48.3911669 0.363719059"></polygon>
                </g>
                <g id="Group" transform="translate(297.263801, 564.734786) rotate(7.000000) translate(-297.263801, -564.734786) translate(260.763801, 533.234786)">
                    <polygon id="Path-33" fill="#8D8D8D" points="31.2860886 50.0381193 63.8410142 46.6963632 60.0421365 1.78988542e-11 27.0599978 4.98269203"></polygon>
                    <polygon id="Path-33" fill="#000000" opacity="0.100000001" points="31.2860886 50.0381193 63.8410142 46.6963632 33.7657207 57.3984079 0.783581928 62.3810999"></polygon>
                    <polygon id="Path-34" fill="#B1B1B1" points="60.0421365 2.5729603e-11 67.916135 3.48505061 72.5041256 43.1353879 63.8410142 46.6963632"></polygon>
                </g>
                <g id="Group" transform="translate(365.601604, 546.016611) rotate(7.000000) translate(-365.601604, -546.016611) translate(335.601604, 521.016611)">
                    <polygon id="Path-33" fill="#8D8D8D" points="26.9808704 40.0304931 53.0248094 37.3570883 49.9857074 2.36468622e-11 23.599998 3.98615339"></polygon>
                    <polygon id="Path-33" fill="#000000" opacity="0.100000001" points="26.9808704 40.0304931 53.0248094 37.3570883 27.3238327 45.3305689 0.938123235 49.3167223"></polygon>
                    <polygon id="Path-34" fill="#B1B1B1" points="49.9857074 2.72848411e-11 56.2849058 2.78804033 59.9552981 34.5083083 53.0248094 37.3570883"></polygon>
                </g>
                <g id="Group-20" transform="translate(229.125943, 452.099962)">
                    <polygon id="Rectangle" fill="#7C7C7C" points="40.8199965 2.95199958 76.2439915 2.95199958 76.2439915 73.7999895 40.8199965 69.4599159"></polygon>
                    <polygon id="Rectangle" fill="#000000" opacity="0.100000001" points="0.381870481 76.2599937 35.8058654 76.2599937 76.2439915 73.7999895 40.8199965 69.4599159"></polygon>
                    <polygon id="Rectangle" fill="#FFFFFF" points="40.8199965 2.95199958 76.2439915 2.95199958 89.6995169 0 54.275522 0"></polygon>
                    <polygon id="Rectangle" fill="#D9D9D9" points="89.6995169 0 76.2439915 2.95199958 76.2439915 73.7999895 89.6995169 70.8479899"></polygon>
                </g>
                <g id="Group-3" transform="translate(204.999995, 513.599988)">
                    <polygon id="Path-38" fill="#8D8D8D" points="36.8999969 53.1359924 36.8999969 2.85859197 69.3719923 0 69.3719923 53.1359924"></polygon>
                    <polygon id="Path-38" fill="#000000" opacity="0.100000001" points="36.8999969 53.1359924 -1.61683986e-13 58.872067 32.4719954 56.0134751 69.3719923 53.1359924"></polygon>
                    <polygon id="Path-39" fill="#B1B1B1" points="69.3719923 53.1359924 81.1799906 46.7543514 81.1799906 1.30169293 69.3719923 0"></polygon>
                </g>
                <polygon id="Path-148" fill="#E5E5E5" points="875.702271 538.199955 784.087068 589.859951 592.172911 556.95266 574.171207 561.747861 788.972895 603.936476 892.08145 541.92679"></polygon>
                <g id="Group-11" transform="translate(1125.958008, 550.054110) rotate(-3.000000) translate(-1125.958008, -550.054110) translate(1104.458008, 518.554110)">
                    <polygon id="Path-93" fill="#B7B7B7" points="17.1998114 31.1534878 17.1998114 62.5652979 23.9847373 59.8696738 22.0051125 31.1534878"></polygon>
                    <polygon id="Path-94" fill="#5E5E5E" points="17.1998114 31.1534878 11.9894546 60.7087287 17.1998114 62.5652979"></polygon>
                    <polygon id="Path-95" fill="#C5C5C5" points="3.53377474e-15 26.0836636 17.1998114 37.2812507 34.926098 34.0975747 26.073154 26.0836636"></polygon>
                    <polygon id="Path-96" fill="#D2D2D2" points="26.073154 26.0836636 42.7416333 24.4873887 34.926098 34.0975747"></polygon>
                    <polygon id="Path-97" fill="#F3F3F3" points="26.073154 26.0836636 26.073154 0 37.3758594 6.27269959 42.7416333 24.4873887"></polygon>
                    <polygon id="Path-98" fill="#E5E5E5" points="26.073154 0 10.4139141 3.0338096 -1.44735079e-15 26.0836636 26.073154 26.0836636"></polygon>
                </g>
                <g id="Group-11" transform="translate(1086.079047, 567.657420) rotate(-3.000000) translate(-1086.079047, -567.657420) translate(1067.579047, 540.657420)">
                    <polygon id="Path-93" fill="#B7B7B7" points="14.791838 26.7919999 14.791838 53.8061571 20.6268744 51.4879203 18.9243971 26.7919999"></polygon>
                    <polygon id="Path-94" fill="#5E5E5E" points="14.791838 26.7919999 10.3109311 52.2095076 14.791838 53.8061571"></polygon>
                    <polygon id="Path-95" fill="#C5C5C5" points="3.03904632e-15 22.4319511 14.791838 32.0618761 30.0364448 29.3239147 22.4229128 22.4319511"></polygon>
                    <polygon id="Path-96" fill="#D2D2D2" points="22.4229128 22.4319511 36.7578052 21.0591547 30.0364448 29.3239147"></polygon>
                    <polygon id="Path-97" fill="#F3F3F3" points="22.4229128 22.4319511 22.4229128 0 32.1432396 5.39452174 36.7578052 21.0591547"></polygon>
                    <polygon id="Path-98" fill="#E5E5E5" points="22.4229128 0 8.95596631 2.6090763 -1.2447217e-15 22.4319511 22.4229128 22.4319511"></polygon>
                </g>
                <g id="Group-11" transform="translate(1047.151844, 540.098461) rotate(-3.000000) translate(-1047.151844, -540.098461) translate(1030.651844, 516.098461)">
                    <polygon id="Path-93" fill="#B7B7B7" points="13.1647356 23.8448795 13.1647356 47.8874791 18.3579179 45.8242484 16.8427131 23.8448795"></polygon>
                    <polygon id="Path-94" fill="#5E5E5E" points="13.1647356 23.8448795 9.17672852 46.466461 13.1647356 47.8874791"></polygon>
                    <polygon id="Path-95" fill="#C5C5C5" points="2.70475119e-15 19.9644361 13.1647356 28.5350693 26.7324355 26.0982837 19.956392 19.9644361"></polygon>
                    <polygon id="Path-96" fill="#D2D2D2" points="19.956392 19.9644361 32.7144461 18.7426473 26.7324355 26.0982837"></polygon>
                    <polygon id="Path-97" fill="#F3F3F3" points="19.956392 19.9644361 19.956392 0 28.6074828 4.80112427 32.7144461 18.7426473"></polygon>
                    <polygon id="Path-98" fill="#E5E5E5" points="19.956392 0 7.97080989 2.32207787 -1.1078023e-15 19.9644361 19.956392 19.9644361"></polygon>
                </g>
                <g id="Group-11" transform="translate(1039.309049, 573.999253) rotate(-3.000000) translate(-1039.309049, -573.999253) translate(1023.309049, 550.499253)">
                    <polygon id="Path-93" fill="#B7B7B7" points="12.7209809 23.0411203 12.7209809 46.2732959 17.7391123 44.2796122 16.2749817 23.0411203"></polygon>
                    <polygon id="Path-94" fill="#5E5E5E" points="12.7209809 23.0411203 8.86740089 44.9001773 12.7209809 46.2732959"></polygon>
                    <polygon id="Path-95" fill="#C5C5C5" points="2.61357988e-15 19.2914782 12.7209809 27.5732139 25.831343 25.2185671 19.2837053 19.2914782"></polygon>
                    <polygon id="Path-96" fill="#D2D2D2" points="19.2837053 19.2914782 31.611713 18.1108733 25.831343 25.2185671"></polygon>
                    <polygon id="Path-97" fill="#F3F3F3" points="19.2837053 19.2914782 19.2837053 0 27.6431865 4.63928877 31.611713 18.1108733"></polygon>
                    <polygon id="Path-98" fill="#E5E5E5" points="19.2837053 0 7.70213116 2.24380565 -1.07046068e-15 19.2914782 19.2837053 19.2914782"></polygon>
                </g>
                <g id="Group-11" transform="translate(1017.199052, 607.017417) rotate(-3.000000) translate(-1017.199052, -607.017417) translate(998.699052, 580.017417)">
                    <polygon id="Path-93" fill="#B7B7B7" points="14.791838 26.7919999 14.791838 53.8061571 20.6268744 51.4879203 18.9243971 26.7919999"></polygon>
                    <polygon id="Path-94" fill="#5E5E5E" points="14.791838 26.7919999 10.3109311 52.2095076 14.791838 53.8061571"></polygon>
                    <polygon id="Path-95" fill="#C5C5C5" points="3.03904632e-15 22.4319511 14.791838 32.0618761 30.0364448 29.3239147 22.4229128 22.4319511"></polygon>
                    <polygon id="Path-96" fill="#D2D2D2" points="22.4229128 22.4319511 36.7578052 21.0591547 30.0364448 29.3239147"></polygon>
                    <polygon id="Path-97" fill="#F3F3F3" points="22.4229128 22.4319511 22.4229128 0 32.1432396 5.39452174 36.7578052 21.0591547"></polygon>
                    <polygon id="Path-98" fill="#E5E5E5" points="22.4229128 0 8.95596631 2.6090763 -1.2447217e-15 22.4319511 22.4229128 22.4319511"></polygon>
                </g>
                <g id="Group-11" transform="translate(975.379056, 602.097417) rotate(-3.000000) translate(-975.379056, -602.097417) translate(956.879056, 575.097417)">
                    <polygon id="Path-93" fill="#B7B7B7" points="14.791838 26.7919999 14.791838 53.8061571 20.6268744 51.4879203 18.9243971 26.7919999"></polygon>
                    <polygon id="Path-94" fill="#5E5E5E" points="14.791838 26.7919999 10.3109311 52.2095076 14.791838 53.8061571"></polygon>
                    <polygon id="Path-95" fill="#C5C5C5" points="3.03904632e-15 22.4319511 14.791838 32.0618761 30.0364448 29.3239147 22.4229128 22.4319511"></polygon>
                    <polygon id="Path-96" fill="#D2D2D2" points="22.4229128 22.4319511 36.7578052 21.0591547 30.0364448 29.3239147"></polygon>
                    <polygon id="Path-97" fill="#F3F3F3" points="22.4229128 22.4319511 22.4229128 0 32.1432396 5.39452174 36.7578052 21.0591547"></polygon>
                    <polygon id="Path-98" fill="#E5E5E5" points="22.4229128 0 8.95596631 2.6090763 -1.2447217e-15 22.4319511 22.4229128 22.4319511"></polygon>
                </g>
                <g id="Group-11" transform="translate(938.479059, 619.317416) rotate(-3.000000) translate(-938.479059, -619.317416) translate(919.979059, 592.317416)">
                    <polygon id="Path-93" fill="#B7B7B7" points="14.791838 26.7919999 14.791838 53.8061571 20.6268744 51.4879203 18.9243971 26.7919999"></polygon>
                    <polygon id="Path-94" fill="#5E5E5E" points="14.791838 26.7919999 10.3109311 52.2095076 14.791838 53.8061571"></polygon>
                    <polygon id="Path-95" fill="#C5C5C5" points="3.03904632e-15 22.4319511 14.791838 32.0618761 30.0364448 29.3239147 22.4229128 22.4319511"></polygon>
                    <polygon id="Path-96" fill="#D2D2D2" points="22.4229128 22.4319511 36.7578052 21.0591547 30.0364448 29.3239147"></polygon>
                    <polygon id="Path-97" fill="#F3F3F3" points="22.4229128 22.4319511 22.4229128 0 32.1432396 5.39452174 36.7578052 21.0591547"></polygon>
                    <polygon id="Path-98" fill="#E5E5E5" points="22.4229128 0 8.95596631 2.6090763 -1.2447217e-15 22.4319511 22.4229128 22.4319511"></polygon>
                </g>
                <polygon id="Path-149" fill="#E5E5E5" points="398.92099 538.006345 460.700307 515.192445 497.542626 530.819956 482.102304 534.956926 460.700307 526.599395 405.84231 547.174096"></polygon>
                <g id="Group-24" transform="translate(377.513803, 647.860178) rotate(-12.000000) translate(-377.513803, -647.860178) translate(356.013803, 629.360178)">
                    <polyline id="Path-153" fill="#717171" points="33.3370963 36.7690692 33.3370963 22.7558687 42.0855306 27.8081556"></polyline>
                    <polygon id="Path-152" fill="#717171" points="0.639999375 17.0890708 12.5021712 17.0890708 12.5021712 27.8081556 3.32822181 28.4226665"></polygon>
                    <polygon id="Path-154" fill="#BCBCBC" points="4.36854841 20.9350459 27.9300757 -1.45519152e-11 35.4992085 31.1163548"></polygon>
                    <polygon id="Path-152" fill="#9B9B9B" points="0.639999375 17.0890708 42.0855306 27.9614165 33.3479068 36.7690692 3.32822181 28.4226665"></polygon>
                </g>
                <path d="M361.80216,661.344135 L392.890584,663.268953 L371.076449,666.63825 L363.871396,665.165135 L349.745186,666.63825 L356.520396,663.662135 L347.910396,661.903048 L361.80216,661.344135 Z" id="Combined-Shape" fill="#000000" opacity="0.100000001"></path>
                <polygon id="Path-155" fill="#E5E5E5" points="838.526851 597.330319 873.773759 576.194901 926.111012 585.181466 884.916643 611.999949"></polygon>
                <g id="Group" transform="translate(850.582821, 587.609037) rotate(7.000000) translate(-850.582821, -587.609037) translate(829.082821, 570.109037)">
                    <polygon id="Path-33" fill="#9D9D9D" points="19.2361974 25.0787649 37.8173659 26.1499614 35.6899946 1.48906718e-11 17.2199983 2.79030732"></polygon>
                    <path d="M19.2361974,25.0787649 L37.8173659,26.1499614 L11.6252101,33.7416745 C7.68419706,33.7954266 4.6645405,33.9019995 2.56624038,34.0613932 C0.467940257,34.2207869 0.0647555435,34.3742242 1.35668624,34.521705 L19.2361974,25.0787649 Z" id="Path-33" fill="#000000" opacity="0.100000001"></path>
                    <polygon id="Path-34" fill="#AFAFAF" points="35.6899946 1.80107218e-11 40.0994334 1.95162819 42.6687079 24.1558154 37.8173659 26.1499614"></polygon>
                </g>
                <polygon id="Path-157" fill="#BEBEBE" points="886.19129 595.394659 892.08145 592.149109 894.236352 559.669524 889.083925 559.669524"></polygon>
                <polygon id="Path-156" fill="#979797" points="880.622271 595.394659 883.549768 552.959954 911.370708 554.450908 911.172631 597.330319 904.238267 597.330319 904.436343 561.82765 889.209689 560.19821 886.524469 595.394659"></polygon>
                <polygon id="Path-156" fill="#000000" opacity="0.100000001" points="880.622271 595.394659 859.135078 601.947055 884.226549 605.491616 911.172631 597.330319 904.238267 597.330319 884.226549 601.02 873.404999 600.129174 886.524469 595.394659"></polygon>
                <polygon id="Path-157" fill="#BEBEBE" points="911.172631 597.330319 917.062791 594.08477 916.523134 554.450908 911.370708 554.450908"></polygon>
                <polygon id="Path-158" fill="#DBDBDB" points="883.549768 552.959954 887.670897 552.2379 916.523134 554.450908 911.370708 554.450908"></polygon>
                <circle id="Oval" fill="#CCCCCC" cx="1025.76226" cy="592.319951" r="2.4599998"></circle>
                <circle id="Oval" fill="#CCCCCC" cx="1011.00226" cy="589.859951" r="2.4599998"></circle>
                <circle id="Oval" fill="#CCCCCC" cx="1011.00226" cy="597.23995" r="2.4599998"></circle>
                <g id="Group-25" opacity="0.300000012" transform="translate(928.565986, 712.601080) rotate(-8.000000) translate(-928.565986, -712.601080) translate(912.565986, 698.101080)" fill="#FFFFFF">
                    <rect id="Rectangle" x="17.3184004" y="11.4144002" width="5.31360011" height="1.96800004"></rect>
                    <rect id="Rectangle" x="10.4304002" y="2.95200006" width="1.37760003" height="2.36160005"></rect>
                    <rect id="Rectangle" x="12.3984003" y="4.13280009" width="1.37760003" height="2.36160005"></rect>
                    <rect id="Rectangle" x="14.1696003" y="5.31360011" width="1.37760003" height="2.36160005"></rect>
                    <rect id="Rectangle" x="15.5472003" y="6.88800015" width="1.37760003" height="2.36160005"></rect>
                    <rect id="Rectangle" x="16.7280004" y="8.46240018" width="1.37760003" height="2.36160005"></rect>
                    <polygon id="Rectangle" points="10.0368002 5.90400013 11.6112002 5.90400013 9.5461459 9.38350491 7.97174586 9.38350491"></polygon>
                    <polygon id="Rectangle" points="7.57545447 10.0368002 9.1498545 10.0368002 12.3542364 13.3800387 10.7798364 13.3800387"></polygon>
                    <polygon id="Rectangle" points="8.10497894 17.3481955 9.05280019 17.2852616 11.7400932 13.8903994 10.9130694 13.8903994"></polygon>
                    <polygon id="Rectangle" points="1.80675473 1.48887659 9.2496002 0 9.2496002 5.90400013 2.8253485 5.90400013 0 4.13280009"></polygon>
                    <polygon id="Path-164" points="20.5720948 13.8714483 18.0839145 15.2312377 17.2424356 14.8914627 19.4832004 13.7760003"></polygon>
                    <polygon id="Path-165" points="17.2009108 15.3615562 17.0735544 20.9445713 17.9555097 21.4512005 18.1763655 16.2297027"></polygon>
                    <polygon id="Path-166" points="16.5312004 21.89365 12.9888003 22.1422208 13.7631772 21.4512005 16.184852 21.4512005"></polygon>
                    <polygon id="Path-167" points="16.3270892 22.3262717 14.437268 23.6160005 13.7631772 27.4514358 15.0133457 24.024582"></polygon>
                    <polygon id="Path-168" points="15.4017083 24.7968005 15.172118 28.1424006 16.0533411 24.7968005 17.3113452 22.3505765"></polygon>
                    <polygon id="Path-168" transform="translate(17.404014, 25.331113) rotate(-12.000000) translate(-17.404014, -25.331113) " points="16.5639907 24.8814245 16.3344004 28.2270246 17.2156234 24.8814245 18.4736275 22.4352005"></polygon>
                    <polygon id="Path-169" points="23.2224005 12.9691203 24.6743845 14.3246787 27.978663 15.4269555 31.9095463 16.2360003 30.9786823 15.1536003 27.128487 14.4094995 24.6743845 13.3800387 24.0096005 12.3000003"></polygon>
                    <polygon id="Path-159" points="12.3984003 7.29255484 10.7955565 10.0368002 11.8080003 9.64320021"></polygon>
                    <polygon id="Path-160" points="13.0872003 7.64375252 12.3542364 10.8240002 13.7631772 10.2906799"></polygon>
                    <polygon id="Path-161" points="14.4740591 8.46240018 14.1696003 11.7084195 15.0451332 11.4144002"></polygon>
                    <polygon id="Path-162" points="15.75568 10.4058002 15.5472003 12.3000003 14.6073667 13.3824003 15.5472003 13.3800387 16.5312004 12.3000003"></polygon>
                </g>
                <g id="Group-25" opacity="0.300000012" transform="translate(153.666050, 660.941085) rotate(-8.000000) translate(-153.666050, -660.941085) translate(137.666050, 646.441085)" fill="#FFFFFF">
                    <rect id="Rectangle" x="17.3184004" y="11.4144002" width="5.31360011" height="1.96800004"></rect>
                    <rect id="Rectangle" x="10.4304002" y="2.95200006" width="1.37760003" height="2.36160005"></rect>
                    <rect id="Rectangle" x="12.3984003" y="4.13280009" width="1.37760003" height="2.36160005"></rect>
                    <rect id="Rectangle" x="14.1696003" y="5.31360011" width="1.37760003" height="2.36160005"></rect>
                    <rect id="Rectangle" x="15.5472003" y="6.88800015" width="1.37760003" height="2.36160005"></rect>
                    <rect id="Rectangle" x="16.7280004" y="8.46240018" width="1.37760003" height="2.36160005"></rect>
                    <polygon id="Rectangle" points="10.0368002 5.90400013 11.6112002 5.90400013 9.5461459 9.38350491 7.97174586 9.38350491"></polygon>
                    <polygon id="Rectangle" points="7.57545447 10.0368002 9.1498545 10.0368002 12.3542364 13.3800387 10.7798364 13.3800387"></polygon>
                    <polygon id="Rectangle" points="8.10497894 17.3481955 9.05280019 17.2852616 11.7400932 13.8903994 10.9130694 13.8903994"></polygon>
                    <polygon id="Rectangle" points="1.80675473 1.48887659 9.2496002 0 9.2496002 5.90400013 2.8253485 5.90400013 0 4.13280009"></polygon>
                    <polygon id="Path-164" points="20.5720948 13.8714483 18.0839145 15.2312377 17.2424356 14.8914627 19.4832004 13.7760003"></polygon>
                    <polygon id="Path-165" points="17.2009108 15.3615562 17.0735544 20.9445713 17.9555097 21.4512005 18.1763655 16.2297027"></polygon>
                    <polygon id="Path-166" points="16.5312004 21.89365 12.9888003 22.1422208 13.7631772 21.4512005 16.184852 21.4512005"></polygon>
                    <polygon id="Path-167" points="16.3270892 22.3262717 14.437268 23.6160005 13.7631772 27.4514358 15.0133457 24.024582"></polygon>
                    <polygon id="Path-168" points="15.4017083 24.7968005 15.172118 28.1424006 16.0533411 24.7968005 17.3113452 22.3505765"></polygon>
                    <polygon id="Path-168" transform="translate(17.404014, 25.331113) rotate(-12.000000) translate(-17.404014, -25.331113) " points="16.5639907 24.8814245 16.3344004 28.2270246 17.2156234 24.8814245 18.4736275 22.4352005"></polygon>
                    <polygon id="Path-169" points="23.2224005 12.9691203 24.6743845 14.3246787 27.978663 15.4269555 31.9095463 16.2360003 30.9786823 15.1536003 27.128487 14.4094995 24.6743845 13.3800387 24.0096005 12.3000003"></polygon>
                    <polygon id="Path-159" points="12.3984003 7.29255484 10.7955565 10.0368002 11.8080003 9.64320021"></polygon>
                    <polygon id="Path-160" points="13.0872003 7.64375252 12.3542364 10.8240002 13.7631772 10.2906799"></polygon>
                    <polygon id="Path-161" points="14.4740591 8.46240018 14.1696003 11.7084195 15.0451332 11.4144002"></polygon>
                    <polygon id="Path-162" points="15.75568 10.4058002 15.5472003 12.3000003 14.6073667 13.3824003 15.5472003 13.3800387 16.5312004 12.3000003"></polygon>
                </g>
                <g id="Group-25" opacity="0.300000012" transform="translate(1044.063773, 683.126280) rotate(-37.000000) translate(-1044.063773, -683.126280) translate(1028.063773, 668.626280)" fill="#FFFFFF">
                    <rect id="Rectangle" x="17.3184004" y="11.4144002" width="5.31360011" height="1.96800004"></rect>
                    <rect id="Rectangle" x="10.4304002" y="2.95200006" width="1.37760003" height="2.36160005"></rect>
                    <rect id="Rectangle" x="12.3984003" y="4.13280009" width="1.37760003" height="2.36160005"></rect>
                    <rect id="Rectangle" x="14.1696003" y="5.31360011" width="1.37760003" height="2.36160005"></rect>
                    <rect id="Rectangle" x="15.5472003" y="6.88800015" width="1.37760003" height="2.36160005"></rect>
                    <rect id="Rectangle" x="16.7280004" y="8.46240018" width="1.37760003" height="2.36160005"></rect>
                    <polygon id="Rectangle" points="10.0368002 5.90400013 11.6112002 5.90400013 9.5461459 9.38350491 7.97174586 9.38350491"></polygon>
                    <polygon id="Rectangle" points="7.57545447 10.0368002 9.1498545 10.0368002 12.3542364 13.3800387 10.7798364 13.3800387"></polygon>
                    <polygon id="Rectangle" points="8.10497894 17.3481955 9.05280019 17.2852616 11.7400932 13.8903994 10.9130694 13.8903994"></polygon>
                    <polygon id="Rectangle" points="1.80675473 1.48887659 9.2496002 0 9.2496002 5.90400013 2.8253485 5.90400013 0 4.13280009"></polygon>
                    <polygon id="Path-164" points="20.5720948 13.8714483 18.0839145 15.2312377 17.2424356 14.8914627 19.4832004 13.7760003"></polygon>
                    <polygon id="Path-165" points="17.2009108 15.3615562 17.0735544 20.9445713 17.9555097 21.4512005 18.1763655 16.2297027"></polygon>
                    <polygon id="Path-166" points="16.5312004 21.89365 12.9888003 22.1422208 13.7631772 21.4512005 16.184852 21.4512005"></polygon>
                    <polygon id="Path-167" points="16.3270892 22.3262717 14.437268 23.6160005 13.7631772 27.4514358 15.0133457 24.024582"></polygon>
                    <polygon id="Path-168" points="15.4017083 24.7968005 15.172118 28.1424006 16.0533411 24.7968005 17.3113452 22.3505765"></polygon>
                    <polygon id="Path-168" transform="translate(17.404014, 25.331113) rotate(-12.000000) translate(-17.404014, -25.331113) " points="16.5639907 24.8814245 16.3344004 28.2270246 17.2156234 24.8814245 18.4736275 22.4352005"></polygon>
                    <polygon id="Path-169" points="23.2224005 12.9691203 24.6743845 14.3246787 27.978663 15.4269555 31.9095463 16.2360003 30.9786823 15.1536003 27.128487 14.4094995 24.6743845 13.3800387 24.0096005 12.3000003"></polygon>
                    <polygon id="Path-159" points="12.3984003 7.29255484 10.7955565 10.0368002 11.8080003 9.64320021"></polygon>
                    <polygon id="Path-160" points="13.0872003 7.64375252 12.3542364 10.8240002 13.7631772 10.2906799"></polygon>
                    <polygon id="Path-161" points="14.4740591 8.46240018 14.1696003 11.7084195 15.0451332 11.4144002"></polygon>
                    <polygon id="Path-162" points="15.75568 10.4058002 15.5472003 12.3000003 14.6073667 13.3824003 15.5472003 13.3800387 16.5312004 12.3000003"></polygon>
                </g>
                <g id="Group-25" opacity="0.300000012" transform="translate(1123.192440, 648.900867) rotate(88.000000) translate(-1123.192440, -648.900867) translate(1107.192440, 634.400867)" fill="#FFFFFF">
                    <rect id="Rectangle" x="17.3184004" y="11.4144002" width="5.31360011" height="1.96800004"></rect>
                    <rect id="Rectangle" x="10.4304002" y="2.95200006" width="1.37760003" height="2.36160005"></rect>
                    <rect id="Rectangle" x="12.3984003" y="4.13280009" width="1.37760003" height="2.36160005"></rect>
                    <rect id="Rectangle" x="14.1696003" y="5.31360011" width="1.37760003" height="2.36160005"></rect>
                    <rect id="Rectangle" x="15.5472003" y="6.88800015" width="1.37760003" height="2.36160005"></rect>
                    <rect id="Rectangle" x="16.7280004" y="8.46240018" width="1.37760003" height="2.36160005"></rect>
                    <polygon id="Rectangle" points="10.0368002 5.90400013 11.6112002 5.90400013 9.5461459 9.38350491 7.97174586 9.38350491"></polygon>
                    <polygon id="Rectangle" points="7.57545447 10.0368002 9.1498545 10.0368002 12.3542364 13.3800387 10.7798364 13.3800387"></polygon>
                    <polygon id="Rectangle" points="8.10497894 17.3481955 9.05280019 17.2852616 11.7400932 13.8903994 10.9130694 13.8903994"></polygon>
                    <polygon id="Rectangle" points="1.80675473 1.48887659 9.2496002 0 9.2496002 5.90400013 2.8253485 5.90400013 0 4.13280009"></polygon>
                    <polygon id="Path-164" points="20.5720948 13.8714483 18.0839145 15.2312377 17.2424356 14.8914627 19.4832004 13.7760003"></polygon>
                    <polygon id="Path-165" points="17.2009108 15.3615562 17.0735544 20.9445713 17.9555097 21.4512005 18.1763655 16.2297027"></polygon>
                    <polygon id="Path-166" points="16.5312004 21.89365 12.9888003 22.1422208 13.7631772 21.4512005 16.184852 21.4512005"></polygon>
                    <polygon id="Path-167" points="16.3270892 22.3262717 14.437268 23.6160005 13.7631772 27.4514358 15.0133457 24.024582"></polygon>
                    <polygon id="Path-168" points="15.4017083 24.7968005 15.172118 28.1424006 16.0533411 24.7968005 17.3113452 22.3505765"></polygon>
                    <polygon id="Path-168" transform="translate(17.404014, 25.331113) rotate(-12.000000) translate(-17.404014, -25.331113) " points="16.5639907 24.8814245 16.3344004 28.2270246 17.2156234 24.8814245 18.4736275 22.4352005"></polygon>
                    <polygon id="Path-169" points="23.2224005 12.9691203 24.6743845 14.3246787 27.978663 15.4269555 31.9095463 16.2360003 30.9786823 15.1536003 27.128487 14.4094995 24.6743845 13.3800387 24.0096005 12.3000003"></polygon>
                    <polygon id="Path-159" points="12.3984003 7.29255484 10.7955565 10.0368002 11.8080003 9.64320021"></polygon>
                    <polygon id="Path-160" points="13.0872003 7.64375252 12.3542364 10.8240002 13.7631772 10.2906799"></polygon>
                    <polygon id="Path-161" points="14.4740591 8.46240018 14.1696003 11.7084195 15.0451332 11.4144002"></polygon>
                    <polygon id="Path-162" points="15.75568 10.4058002 15.5472003 12.3000003 14.6073667 13.3824003 15.5472003 13.3800387 16.5312004 12.3000003"></polygon>
                </g>
                <g id="Group-25" opacity="0.300000012" transform="translate(529.984176, 725.404753) scale(1, -1) rotate(-22.000000) translate(-529.984176, -725.404753) translate(513.984176, 710.904753)" fill="#FFFFFF">
                    <rect id="Rectangle" x="17.3184004" y="11.4144002" width="5.31360011" height="1.96800004"></rect>
                    <rect id="Rectangle" x="10.4304002" y="2.95200006" width="1.37760003" height="2.36160005"></rect>
                    <rect id="Rectangle" x="12.3984003" y="4.13280009" width="1.37760003" height="2.36160005"></rect>
                    <rect id="Rectangle" x="14.1696003" y="5.31360011" width="1.37760003" height="2.36160005"></rect>
                    <rect id="Rectangle" x="15.5472003" y="6.88800015" width="1.37760003" height="2.36160005"></rect>
                    <rect id="Rectangle" x="16.7280004" y="8.46240018" width="1.37760003" height="2.36160005"></rect>
                    <polygon id="Rectangle" points="10.0368002 5.90400013 11.6112002 5.90400013 9.5461459 9.38350491 7.97174586 9.38350491"></polygon>
                    <polygon id="Rectangle" points="7.57545447 10.0368002 9.1498545 10.0368002 12.3542364 13.3800387 10.7798364 13.3800387"></polygon>
                    <polygon id="Rectangle" points="8.10497894 17.3481955 9.05280019 17.2852616 11.7400932 13.8903994 10.9130694 13.8903994"></polygon>
                    <polygon id="Rectangle" points="1.80675473 1.48887659 9.2496002 0 9.2496002 5.90400013 2.8253485 5.90400013 0 4.13280009"></polygon>
                    <polygon id="Path-164" points="20.5720948 13.8714483 18.0839145 15.2312377 17.2424356 14.8914627 19.4832004 13.7760003"></polygon>
                    <polygon id="Path-165" points="17.2009108 15.3615562 17.0735544 20.9445713 17.9555097 21.4512005 18.1763655 16.2297027"></polygon>
                    <polygon id="Path-166" points="16.5312004 21.89365 12.9888003 22.1422208 13.7631772 21.4512005 16.184852 21.4512005"></polygon>
                    <polygon id="Path-167" points="16.3270892 22.3262717 14.437268 23.6160005 13.7631772 27.4514358 15.0133457 24.024582"></polygon>
                    <polygon id="Path-168" points="15.4017083 24.7968005 15.172118 28.1424006 16.0533411 24.7968005 17.3113452 22.3505765"></polygon>
                    <polygon id="Path-168" transform="translate(17.404014, 25.331113) rotate(-12.000000) translate(-17.404014, -25.331113) " points="16.5639907 24.8814245 16.3344004 28.2270246 17.2156234 24.8814245 18.4736275 22.4352005"></polygon>
                    <polygon id="Path-169" points="23.2224005 12.9691203 24.6743845 14.3246787 27.978663 15.4269555 31.9095463 16.2360003 30.9786823 15.1536003 27.128487 14.4094995 24.6743845 13.3800387 24.0096005 12.3000003"></polygon>
                    <polygon id="Path-159" points="12.3984003 7.29255484 10.7955565 10.0368002 11.8080003 9.64320021"></polygon>
                    <polygon id="Path-160" points="13.0872003 7.64375252 12.3542364 10.8240002 13.7631772 10.2906799"></polygon>
                    <polygon id="Path-161" points="14.4740591 8.46240018 14.1696003 11.7084195 15.0451332 11.4144002"></polygon>
                    <polygon id="Path-162" points="15.75568 10.4058002 15.5472003 12.3000003 14.6073667 13.3824003 15.5472003 13.3800387 16.5312004 12.3000003"></polygon>
                </g>
                <g id="Group-25" opacity="0.5" transform="translate(382.560436, 747.055125) scale(1, -1) rotate(-202.000000) translate(-382.560436, -747.055125) translate(366.560436, 732.555125)" fill="#FFFFFF">
                    <rect id="Rectangle" x="17.3184004" y="11.4144002" width="5.31360011" height="1.96800004"></rect>
                    <rect id="Rectangle" x="10.4304002" y="2.95200006" width="1.37760003" height="2.36160005"></rect>
                    <rect id="Rectangle" x="12.3984003" y="4.13280009" width="1.37760003" height="2.36160005"></rect>
                    <rect id="Rectangle" x="14.1696003" y="5.31360011" width="1.37760003" height="2.36160005"></rect>
                    <rect id="Rectangle" x="15.5472003" y="6.88800015" width="1.37760003" height="2.36160005"></rect>
                    <rect id="Rectangle" x="16.7280004" y="8.46240018" width="1.37760003" height="2.36160005"></rect>
                    <polygon id="Rectangle" points="10.0368002 5.90400013 11.6112002 5.90400013 9.5461459 9.38350491 7.97174586 9.38350491"></polygon>
                    <polygon id="Rectangle" points="7.57545447 10.0368002 9.1498545 10.0368002 12.3542364 13.3800387 10.7798364 13.3800387"></polygon>
                    <polygon id="Rectangle" points="8.10497894 17.3481955 9.05280019 17.2852616 11.7400932 13.8903994 10.9130694 13.8903994"></polygon>
                    <polygon id="Rectangle" points="1.80675473 1.48887659 9.2496002 0 9.2496002 5.90400013 2.8253485 5.90400013 0 4.13280009"></polygon>
                    <polygon id="Path-164" points="20.5720948 13.8714483 18.0839145 15.2312377 17.2424356 14.8914627 19.4832004 13.7760003"></polygon>
                    <polygon id="Path-165" points="17.2009108 15.3615562 17.0735544 20.9445713 17.9555097 21.4512005 18.1763655 16.2297027"></polygon>
                    <polygon id="Path-166" points="16.5312004 21.89365 12.9888003 22.1422208 13.7631772 21.4512005 16.184852 21.4512005"></polygon>
                    <polygon id="Path-167" points="16.3270892 22.3262717 14.437268 23.6160005 13.7631772 27.4514358 15.0133457 24.024582"></polygon>
                    <polygon id="Path-168" points="15.4017083 24.7968005 15.172118 28.1424006 16.0533411 24.7968005 17.3113452 22.3505765"></polygon>
                    <polygon id="Path-168" transform="translate(17.404014, 25.331113) rotate(-12.000000) translate(-17.404014, -25.331113) " points="16.5639907 24.8814245 16.3344004 28.2270246 17.2156234 24.8814245 18.4736275 22.4352005"></polygon>
                    <polygon id="Path-169" points="23.2224005 12.9691203 24.6743845 14.3246787 27.978663 15.4269555 31.9095463 16.2360003 30.9786823 15.1536003 27.128487 14.4094995 24.6743845 13.3800387 24.0096005 12.3000003"></polygon>
                    <polygon id="Path-159" points="12.3984003 7.29255484 10.7955565 10.0368002 11.8080003 9.64320021"></polygon>
                    <polygon id="Path-160" points="13.0872003 7.64375252 12.3542364 10.8240002 13.7631772 10.2906799"></polygon>
                    <polygon id="Path-161" points="14.4740591 8.46240018 14.1696003 11.7084195 15.0451332 11.4144002"></polygon>
                    <polygon id="Path-162" points="15.75568 10.4058002 15.5472003 12.3000003 14.6073667 13.3824003 15.5472003 13.3800387 16.5312004 12.3000003"></polygon>
                </g>
            </g>
            <g id="Group-12" opacity="0.049999997" transform="translate(496.099988, 49.249203)">
                <polygon id="Path-99" fill="#FFFFFF" points="116.757285 33.4133487 96.2494301 68.4414744 122.483264 81.7686085 148.310108 81.7686085 150.729849 69.4324282 126.612362 36.7085684"></polygon>
                <polygon id="Path-100" fill="#FCFBF6" points="150.729849 69.4324282 150.729849 101.861539 138.89828 111.483789 106.184425 112.620252 122.483264 81.7686085 148.310108 81.7686085"></polygon>
                <polygon id="Path-101" fill="#F2F2F2" points="122.483264 81.7686085 96.2494301 68.4414744 73.832422 91.0263402 106.184425 112.620252"></polygon>
                <polygon id="Path-102" fill="#BCBCBC" points="73.832422 91.0263402 96.2494301 68.4414744 116.757285 33.4133487"></polygon>
                <polygon id="Path-103" fill="#FFFFFF" points="150.729849 101.861539 143.799919 115.452614 138.89828 111.483789"></polygon>
                <polygon id="Path-104" fill="#F4F4F4" points="138.89828 111.483789 104.618624 140.190108 130.625284 126.738927 143.799919 115.452614"></polygon>
                <polygon id="Path-105" fill="#FAFAFA" points="106.184425 112.620252 104.618624 140.190108 138.89828 111.483789"></polygon>
                <polygon id="Path-106" fill="#D8D8D8" points="73.832422 91.0263402 77.4006142 131.769613 106.184425 112.620252"></polygon>
                <polygon id="Path-107" fill="#E9E9E9" points="77.4006142 131.769613 104.618624 140.540635 106.184425 112.620252"></polygon>
                <polygon id="Path-108" fill="#D8D8D8" points="73.832422 90.5308633 58.1943871 113.666798 77.4006142 131.769613"></polygon>
                <polygon id="Path-109" fill="#D8D8D8" points="70.5587426 79.7299897 73.832422 91.0263402 95.2948536 62.2198444"></polygon>
                <polygon id="Path-110" fill="#F2F2F2" points="64.6810674 38.1039626 70.5587426 79.7299897 95.2948536 62.2198444"></polygon>
                <polygon id="Path-111" fill="#D8D8D8" points="64.6810674 38.1039626 95.2948536 62.2198444 109.355247 44.0802793 87.0181574 38.1039626"></polygon>
                <polygon id="Path-127" fill="#E1E1E1" points="49.6784404 12.2787229 87.0181574 0 64.6810674 27.6094042"></polygon>
                <polygon id="Path-112" fill="#FDFCF7" points="87.0181574 38.1039626 108.177936 30.1808098 116.757285 33.4133487 109.355247 44.0802793"></polygon>
                <polygon id="Path-113" fill="#EAEAEA" points="87.0181574 38.1039626 114.162169 19.1079463 111.350978 31.4359184"></polygon>
                <polyline id="Path-114" fill="#FFFFFF" points="87.0181574 38.1039626 91.7925198 20.0809913 87.0181574 0 114.162169 19.1079463"></polyline>
                <polygon id="Path-115" fill="#EAEAEA" points="87.0181574 0 69.2267754 9.1596064 91.7925198 20.0809913"></polygon>
                <polygon id="Path-116" fill="#F0F0F0" points="69.2267754 9.1596064 61.1879834 26.8535035 77.4006142 38.1039626 87.0181574 38.1039626 91.7925198 20.0809913"></polygon>
                <polyline id="Path-117" fill="#D8D8D8" points="61.769609 26.5871101 55.7374626 39.1262568 64.6810674 39.1262568 77.4006142 38.1039626"></polyline>
                <polygon id="Path-118" fill="#C1C1C1" points="55.7374626 39.1262568 55.7374626 44.0802793 64.6810674 39.1262568"></polygon>
                <polygon id="Path-119" fill="#D5D5D5" points="70.5587426 79.7299897 51.8394236 45.9368252 64.6810674 38.1039626"></polygon>
                <polygon id="Path-120" fill="#D8D8D8" points="51.8394236 45.9368252 51.8394236 79.7299897 70.5587426 79.7299897"></polygon>
                <polygon id="Path-121" fill="#CBCBCB" points="51.8394236 79.7299897 58.1943871 113.666798 73.832422 91.0263402 70.5587426 79.7299897"></polygon>
                <polygon id="Path-122" fill="#ADADAD" points="87.0181574 134.308558 71.6368961 138.566563 73.832422 128.000929"></polygon>
                <polygon id="Path-123" fill="#C5C5C5" points="71.6368961 138.566563 50.3069213 117.231209 34.9268437 79.7299897 59.0348214 105.988986 73.832422 128.000929"></polygon>
                <polygon id="Path-124" fill="#DBDBDB" points="43.3062316 57.5909786 34.6758134 79.7299897 64.6810674 114.577162"></polygon>
                <polygon id="Path-125" fill="#DDDDDD" points="43.3062316 57.5909786 56.8816594 37.1305446 51.8394236 81.7686085"></polygon>
                <polygon id="Path-133" fill="#C2C2C2" points="12.259581 42.8908363 16.7531875 37.1305446 39.9777006 39.7652839"></polygon>
                <polygon id="Path-126" fill="#CFCFCF" points="49.6784404 12.2787229 51.8394236 20.0809913 64.6810674 27.6094042"></polygon>
                <polygon id="Path-128" fill="#9E9E9E" points="51.8394236 20.0809913 35.9349952 35.457937 43.3062316 59.4495765 64.6810674 26.5871101"></polygon>
                <polygon id="Path-129" fill="#BEBEBE" points="35.9349952 35.457937 29.6823341 45.9368252 28.2143953 56.2008078 31.8880348 64.9708977 44.0204061 57.5909786"></polygon>
                <polygon id="Path-130" fill="#EBEBEB" points="32.1854333 62.8334075 26.4169795 84.0281024 47.9227 101.861539 44.389287 52.2250536"></polygon>
                <polygon id="Path-131" stroke="#979797" stroke-width="3.73100005" points="31.3737475 44.0802793 12.259581 61.0473775 27.9909208 68.4414744"></polygon>
                <polygon id="Path-132" fill="#D8D8D8" points="12.7591358 61.1854245 12.259581 42.8908363 37.1698398 39.7652839"></polygon>
                <polygon id="Path-134" fill="#A6A6A6" points="12.259581 42.8908363 0 69.4324282 17.6722449 57.5909786"></polygon>
                <polygon id="Path-135" fill="#C4C4C4" points="-6.19168747e-14 69.4324282 13.4012059 105.782447 42.2981845 109.148276"></polygon>
                <polygon id="Path-136" fill="#E8E8E8" points="21.4291324 89.780186 21.8166642 79.7299897 27.9909208 84.0281024 40.7236519 117.231209 27.9909208 105.782447"></polygon>
                <polygon id="Path-137" fill="#C0C0C0" points="40.7236519 118.27477 51.8394236 117.231209 45.48446 95.2837849 27.0534423 84.0281024"></polygon>
                <polygon id="Path-138" fill="#CFCFCF" points="0 69.4324282 37.1698398 39.1262568 27.9909208 96.6983938"></polygon>
            </g>
            <g id="Group-12" opacity="0.049999997" transform="translate(670.710798, 0.000000)">
                <polygon id="Path-99" fill="#FFFFFF" points="233.51457 66.5750908 192.49886 136.367576 244.966528 162.921489 296.620216 162.921489 301.459697 138.342022 253.224725 73.1407168"></polygon>
                <polygon id="Path-100" fill="#FCFBF6" points="301.459697 138.342022 301.459697 202.956048 277.79656 222.128092 212.368851 224.39246 244.966528 162.921489 296.620216 162.921489"></polygon>
                <polygon id="Path-101" fill="#F2F2F2" points="244.966528 162.921489 192.49886 136.367576 147.664844 181.367241 212.368851 224.39246"></polygon>
                <polygon id="Path-102" fill="#BCBCBC" points="147.664844 181.367241 192.49886 136.367576 233.51457 66.5750908"></polygon>
                <polygon id="Path-103" fill="#FFFFFF" points="301.459697 202.956048 287.599838 230.035856 277.79656 222.128092"></polygon>
                <polygon id="Path-104" fill="#F4F4F4" points="277.79656 222.128092 209.237248 279.324567 261.250567 252.523494 287.599838 230.035856"></polygon>
                <polygon id="Path-105" fill="#FAFAFA" points="212.368851 224.39246 209.237248 279.324567 277.79656 222.128092"></polygon>
                <polygon id="Path-106" fill="#D8D8D8" points="147.664844 181.367241 154.801228 262.546984 212.368851 224.39246"></polygon>
                <polygon id="Path-107" fill="#E9E9E9" points="154.801228 262.546984 209.237248 280.022983 212.368851 224.39246"></polygon>
                <polygon id="Path-108" fill="#D8D8D8" points="147.664844 180.380018 116.388774 226.477671 154.801228 262.546984"></polygon>
                <polygon id="Path-109" fill="#D8D8D8" points="141.117485 158.859603 147.664844 181.367241 190.589707 123.971166"></polygon>
                <polygon id="Path-110" fill="#F2F2F2" points="129.362135 75.9209978 141.117485 158.859603 190.589707 123.971166"></polygon>
                <polygon id="Path-111" fill="#D8D8D8" points="129.362135 75.9209978 190.589707 123.971166 218.710495 87.8286288 174.036315 75.9209978"></polygon>
                <polygon id="Path-127" fill="#E1E1E1" points="99.3568808 24.4649855 174.036315 0 129.362135 55.0109063"></polygon>
                <polygon id="Path-112" fill="#FDFCF7" points="174.036315 75.9209978 216.355873 60.1343545 233.51457 66.5750908 218.710495 87.8286288"></polygon>
                <polygon id="Path-113" fill="#EAEAEA" points="174.036315 75.9209978 228.324338 38.0720075 222.701956 62.6351205"></polygon>
                <polyline id="Path-114" fill="#FFFFFF" points="174.036315 75.9209978 183.58504 40.0107702 174.036315 0 228.324338 38.0720075"></polyline>
                <polygon id="Path-115" fill="#EAEAEA" points="174.036315 0 138.453551 18.2502399 183.58504 40.0107702"></polygon>
                <polygon id="Path-116" fill="#F0F0F0" points="138.453551 18.2502399 122.375967 53.5047969 154.801228 75.9209978 174.036315 75.9209978 183.58504 40.0107702"></polygon>
                <polyline id="Path-117" fill="#D8D8D8" points="123.539218 52.974016 111.474925 77.9578881 129.362135 77.9578881 154.801228 75.9209978"></polyline>
                <polygon id="Path-118" fill="#C1C1C1" points="111.474925 77.9578881 111.474925 87.8286288 129.362135 77.9578881"></polygon>
                <polygon id="Path-119" fill="#D5D5D5" points="141.117485 158.859603 103.678847 91.5277406 129.362135 75.9209978"></polygon>
                <polygon id="Path-120" fill="#D8D8D8" points="103.678847 91.5277406 103.678847 158.859603 141.117485 158.859603"></polygon>
                <polygon id="Path-121" fill="#CBCBCB" points="103.678847 158.859603 116.388774 226.477671 147.664844 181.367241 141.117485 158.859603"></polygon>
                <polygon id="Path-122" fill="#ADADAD" points="174.036315 267.605757 143.273792 276.089702 147.664844 255.037995"></polygon>
                <polygon id="Path-123" fill="#C5C5C5" points="143.273792 276.089702 100.613843 233.579653 69.8536873 158.859603 118.069643 211.179862 147.664844 255.037995"></polygon>
                <polygon id="Path-124" fill="#DBDBDB" points="86.6124631 114.74829 69.3516269 158.859603 129.362135 228.291544"></polygon>
                <polygon id="Path-125" fill="#DDDDDD" points="86.6124631 114.74829 113.763319 73.9814916 103.678847 162.921489"></polygon>
                <polygon id="Path-133" fill="#C2C2C2" points="24.519162 85.4586995 33.506375 73.9814916 79.9554013 79.2311304"></polygon>
                <polygon id="Path-126" fill="#CFCFCF" points="99.3568808 24.4649855 103.678847 40.0107702 129.362135 55.0109063"></polygon>
                <polygon id="Path-128" fill="#9E9E9E" points="103.678847 40.0107702 71.8699903 70.6488715 86.6124631 118.451491 129.362135 52.974016"></polygon>
                <polygon id="Path-129" fill="#BEBEBE" points="71.8699903 70.6488715 59.3646683 91.5277406 56.4287906 111.978417 63.7760696 129.452557 88.0408122 114.74829"></polygon>
                <polygon id="Path-130" fill="#EBEBEB" points="64.3708667 125.193672 52.8339591 167.423463 95.8454 202.956048 88.778574 104.056846"></polygon>
                <polygon id="Path-131" stroke="#979797" stroke-width="3.73100005" points="62.747495 87.8286288 24.519162 121.635061 55.9818416 136.367576"></polygon>
                <polygon id="Path-132" fill="#D8D8D8" points="25.5182717 121.910115 24.519162 85.4586995 74.3396795 79.2311304"></polygon>
                <polygon id="Path-134" fill="#A6A6A6" points="24.519162 85.4586995 0 138.342022 35.3444897 114.74829"></polygon>
                <polygon id="Path-135" fill="#C4C4C4" points="-1.23833749e-13 138.342022 26.8024118 210.76834 84.596369 217.474653"></polygon>
                <polygon id="Path-136" fill="#E8E8E8" points="42.8582647 178.884316 43.6333285 158.859603 55.9818416 167.423463 81.4473038 233.579653 55.9818416 210.76834"></polygon>
                <polygon id="Path-137" fill="#C0C0C0" points="81.4473038 235.658917 103.678847 233.579653 90.9689201 189.850071 54.1068847 167.423463"></polygon>
                <polygon id="Path-138" fill="#CFCFCF" points="0 138.342022 74.3396795 77.9578881 55.9818416 192.668637"></polygon>
            </g>
        </g>
    </g>
</svg>